<?xml version="1.0" encoding="UTF-8"?>
<svg version="1.1" xmlns="http://www.w3.org/2000/svg" width="287" height="296">
<path d="M0 0 C0.75816834 -0.00453111 1.51633667 -0.00906223 2.29747981 -0.01373065 C4.83377336 -0.02637409 7.36985216 -0.02475432 9.90617371 -0.02310181 C11.72642289 -0.02908712 13.54666953 -0.03589267 15.36691284 -0.04345703 C20.30915863 -0.06112455 25.25133516 -0.06581275 30.19360948 -0.0670886 C33.28241779 -0.0685104 36.3712085 -0.07278055 39.46001244 -0.07808304 C50.23895256 -0.0965862 61.01784322 -0.10475334 71.79679871 -0.10317993 C81.83916386 -0.10197864 91.88131405 -0.12307793 101.92362481 -0.15466726 C110.54969188 -0.18083319 119.17568875 -0.19154708 127.80179518 -0.19026911 C132.9518821 -0.18975955 138.101778 -0.19543966 143.25182533 -0.21662521 C148.0970762 -0.23601272 152.94195394 -0.2361285 157.78721809 -0.22159195 C159.56251827 -0.21950335 161.33784183 -0.22420778 163.11310196 -0.23631287 C165.54304069 -0.25180493 167.97169915 -0.24243213 170.40161133 -0.22705078 C171.09861438 -0.23733791 171.79561743 -0.24762503 172.51374179 -0.25822389 C179.32429297 -0.16342245 185.38013576 2.66200006 190.14128113 7.51742554 C190.93792175 8.29859741 190.93792175 8.29859741 191.75065613 9.09555054 C196.32770978 15.15469775 197.98531138 20.54062322 197.8992157 28.07211304 C197.90545566 28.9226828 197.91169562 29.77325256 197.91812468 30.64959717 C197.93399492 33.48082754 197.92147399 36.3111898 197.90885925 39.14242554 C197.91428302 41.17986552 197.92140711 43.21730157 197.93009949 45.25473022 C197.94830531 50.77537691 197.94127651 56.29572394 197.92858315 61.81637573 C197.91844135 67.59954626 197.92785211 73.38269148 197.93412781 79.16586304 C197.94140075 88.87684729 197.93182569 98.58770978 197.9127655 108.29867554 C197.89099752 119.51865396 197.89804914 130.73834161 197.92007113 141.95831299 C197.9382351 151.59930913 197.94077854 161.24021785 197.93031645 170.88122559 C197.92408704 176.63598393 197.92323079 182.3906057 197.9364624 188.14535522 C197.9480347 193.5561786 197.93996965 198.96662784 197.91688538 204.37741089 C197.9116057 206.36072163 197.91309933 208.34406397 197.92193604 210.32736206 C197.93290442 213.03957613 197.91911253 215.75059936 197.8992157 218.46273804 C197.90813859 219.24329559 197.91706147 220.02385315 197.92625475 220.82806396 C197.82892655 227.69116074 195.54043866 232.76975597 191.07878113 237.95492554 C184.44169257 243.66590872 179.95782795 246.41691817 171.02307129 246.41459656 C170.2666118 246.41827325 169.51015231 246.42194993 168.73076981 246.42573804 C166.18831949 246.43677762 163.64591004 246.44061919 161.10343933 246.44442749 C159.28348663 246.45069197 157.46353522 246.45733876 155.64358521 246.46434021 C149.65975333 246.48538598 143.67592119 246.4957435 137.69206238 246.50570679 C135.63214288 246.50975424 133.57222352 246.51387115 131.51230431 246.51805687 C121.83417708 246.53711016 112.15605749 246.55134055 102.47791511 246.55966884 C91.30706561 246.56944032 80.13641431 246.59575701 68.96563464 246.63616973 C60.33112397 246.66633462 51.69667009 246.6811381 43.06210774 246.68444985 C37.90527156 246.68680004 32.74864709 246.69575647 27.59186745 246.72091103 C22.7384521 246.74420298 17.88538769 246.74842041 13.03193092 246.73814964 C11.25340101 246.73765444 9.47485375 246.74397042 7.6963768 246.75770569 C5.26196961 246.77545034 2.82881835 246.76830664 0.39440918 246.75517273 C-0.30395811 246.76614198 -1.0023254 246.77711122 -1.72185534 246.78841287 C-8.69326345 246.69804758 -15.11959601 243.52406063 -20.23691654 238.81731987 C-28.36326001 229.6359871 -27.31358652 218.6627676 -27.23982239 207.16537476 C-27.24496606 205.12763853 -27.2522507 203.08990676 -27.26150513 201.05218506 C-27.27996776 195.53985048 -27.26711374 190.02800162 -27.24741483 184.51568747 C-27.23098912 178.73786988 -27.23984648 172.96008211 -27.24493408 167.18225098 C-27.24944992 157.48318756 -27.23361491 147.78431732 -27.2056427 138.08529663 C-27.17357518 126.88003697 -27.17361529 115.67512531 -27.19085747 104.46984088 C-27.20673178 93.67682153 -27.19998429 82.88392948 -27.18292046 72.09091568 C-27.17605712 67.50336432 -27.17707503 62.91591522 -27.18446541 58.32836533 C-27.19213773 52.92570717 -27.17997084 47.52344423 -27.1526165 42.12085342 C-27.14574227 40.14077172 -27.14562435 38.16065303 -27.15283203 36.18057251 C-27.16155133 33.4728286 -27.14552921 30.76629756 -27.12338257 28.05865479 C-27.13162334 27.27946147 -27.1398641 26.50026815 -27.14835459 25.69746292 C-27.04433108 18.78332288 -24.74509483 13.67769585 -20.17121887 8.51742554 C-13.45832744 2.6231794 -9.06913538 -0.03991637 0 0 Z M86.85612488 17.50570679 C84.03873473 20.89408801 82.39716155 25.00110513 81.39128113 29.26742554 C81.68155304 30.61079113 82.00918185 31.94724031 82.39128113 33.26742554 C84.5772971 31.2435591 86.73854242 29.20117773 88.89128113 27.14242554 C89.51132019 26.57265991 90.13135925 26.00289429 90.77018738 25.41586304 C94.54963547 21.81761417 94.54963547 21.81761417 95.79753113 16.83773804 C95.66346863 15.98953491 95.52940613 15.14133179 95.39128113 14.26742554 C91.22422883 14.26742554 89.90831891 14.79523422 86.85612488 17.50570679 Z M95.39128113 21.26742554 C95.06643738 22.32703491 95.06643738 22.32703491 94.73503113 23.40805054 C93.06708597 26.95728267 90.6807577 29.34327616 87.89128113 32.01742554 C87.39241394 32.51113647 86.89354675 33.00484741 86.37956238 33.51351929 C82.70229303 37.11191958 82.70229303 37.11191958 80.39128113 38.26742554 C79.92295463 40.85347885 79.92295463 40.85347885 79.76628113 43.82992554 C79.6915155 44.8418396 79.61674988 45.85375366 79.53971863 46.89633179 C79.49073425 47.67879272 79.44174988 48.46125366 79.39128113 49.26742554 C80.52327466 48.35940934 81.64660476 47.44058728 82.76628113 46.51742554 C83.3927655 46.00695679 84.01924988 45.49648804 84.66471863 44.97055054 C86.47440431 43.18543073 87.39245568 41.5879291 88.39128113 39.26742554 C89.05128113 39.26742554 89.71128113 39.26742554 90.39128113 39.26742554 C90.39128113 38.60742554 90.39128113 37.94742554 90.39128113 37.26742554 C91.71128113 36.60742554 93.03128113 35.94742554 94.39128113 35.26742554 C94.39128113 34.60742554 94.39128113 33.94742554 94.39128113 33.26742554 C95.05128113 33.26742554 95.71128113 33.26742554 96.39128113 33.26742554 C96.39128113 29.30742554 96.39128113 25.34742554 96.39128113 21.26742554 C96.06128113 21.26742554 95.73128113 21.26742554 95.39128113 21.26742554 Z M87.82878113 45.26742554 C86.61931824 46.38310913 86.61931824 46.38310913 85.38542175 47.52133179 C81.13277089 51.45928779 81.13277089 51.45928779 78.86442566 56.61508179 C78.8078349 59.04467251 78.8078349 59.04467251 79.39128113 62.26742554 C80.05128113 62.26742554 80.71128113 62.26742554 81.39128113 62.26742554 C82.57237556 60.85011221 83.74906725 59.42881217 84.89909363 57.98617554 C86.46711715 56.18007515 88.12447527 54.68124077 89.95378113 53.14242554 C90.54417175 52.64098022 91.13456238 52.13953491 91.74284363 51.62289429 C93.07400591 50.52831298 94.445819 49.48328199 95.82878113 48.45492554 C98.2986131 44.99716077 97.70768064 41.38061923 97.39128113 37.26742554 C94.26981568 37.26742554 89.96822121 43.20187776 87.82878113 45.26742554 Z M138.76628113 49.12680054 C137.35615035 51.23086722 137.35615035 51.23086722 136.31315613 53.47445679 C135.08406442 55.864936 133.80820418 56.12610076 131.39128113 57.26742554 C127.13638149 60.0756593 125.16587781 61.81662769 123.95378113 66.82992554 C123.34027749 70.01903902 123.54343967 72.15758707 124.39128113 75.26742554 C124.75809998 74.82841919 125.12491882 74.38941284 125.50285339 73.93710327 C131.09633655 67.38573509 137.20376939 61.37557572 143.32878113 55.32992554 C145.42407016 53.26115516 147.51605726 51.18912556 149.60612488 49.11508179 C150.52514587 48.20766235 151.44416687 47.30024292 152.39103699 46.36532593 C154.50629129 44.6299084 154.50629129 44.6299084 154.39128113 43.26742554 C146.90749506 42.18325532 143.42764754 43.07598837 138.76628113 49.12680054 Z M153.91374207 48.24569702 C153.2300354 48.89735336 152.54632874 49.5490097 151.84190369 50.22041321 C150.74486115 51.29362572 150.74486115 51.29362572 149.62565613 52.38851929 C148.87286377 53.12183975 148.12007141 53.85516022 147.34446716 54.61070251 C145.75320767 56.16920054 144.16638757 57.73224211 142.58366394 59.29940796 C140.15910016 61.68737546 137.70218585 64.03841197 135.24284363 66.39047241 C133.70164087 67.90848481 132.16250786 69.42860202 130.62565613 70.95101929 C129.88619751 71.64827621 129.14673889 72.34553314 128.38487244 73.06391907 C124.57488908 76.812766 124.57488908 76.812766 123.17070007 81.78747559 C123.4114335 84.02925777 123.77956361 86.09979809 124.39128113 88.26742554 C127.91301417 84.74951816 131.42669272 81.22369642 134.93783569 77.69522095 C137.8759991 74.74369455 140.81679855 71.79480062 143.75773621 68.84603882 C145.31135725 67.28735179 146.86408501 65.7277739 148.41593933 64.16732788 C150.6592944 61.91189776 152.90581561 59.65966464 155.15299988 57.40805054 C156.19674019 56.3565683 156.19674019 56.3565683 157.26156616 55.28384399 C157.90596146 54.63937317 158.55035675 53.99490234 159.21427917 53.3309021 C159.78099838 52.76196228 160.34771759 52.19302246 160.93161011 51.60684204 C162.39128113 50.26742554 162.39128113 50.26742554 164.39128113 49.26742554 C164.39128113 48.60742554 164.39128113 47.94742554 164.39128113 47.26742554 C159.8523426 44.76318359 157.69598844 44.61150097 153.91374207 48.24569702 Z M132.89128113 48.51742554 C130.78151501 50.83816827 129.67187528 52.49280487 128.39128113 55.26742554 C129.52022989 54.33468445 130.64428989 53.39602431 131.76628113 52.45492554 C132.3927655 51.93285522 133.01924988 51.41078491 133.66471863 50.87289429 C135.61338592 49.18516815 135.61338592 49.18516815 137.39128113 46.26742554 C135.07847817 46.04443729 135.07847817 46.04443729 132.89128113 48.51742554 Z M47.39128113 48.26742554 C47.39128113 50.24742554 47.39128113 52.22742554 47.39128113 54.26742554 C47.72128113 54.26742554 48.05128113 54.26742554 48.39128113 54.26742554 C48.39128113 52.28742554 48.39128113 50.30742554 48.39128113 48.26742554 C48.06128113 48.26742554 47.73128113 48.26742554 47.39128113 48.26742554 Z M6.39128113 49.26742554 C7.39128113 53.26742554 7.39128113 53.26742554 7.39128113 53.26742554 Z M26.39128113 50.26742554 C26.06128113 54.22742554 25.73128113 58.18742554 25.39128113 62.26742554 C28.63477935 59.70746232 28.63477935 59.70746232 28.46549988 57.00570679 C28.2740741 55.80494507 28.2740741 55.80494507 28.07878113 54.57992554 C27.95889832 53.77168335 27.8390155 52.96344116 27.71549988 52.13070679 C27.60850769 51.51582397 27.5015155 50.90094116 27.39128113 50.26742554 C27.06128113 50.26742554 26.73128113 50.26742554 26.39128113 50.26742554 Z M96.39128113 50.26742554 C95.34320267 51.40967916 94.32881177 52.58287899 93.32878113 53.76742554 C83.41929837 65.25341692 83.41929837 65.25341692 79.39128113 67.26742554 C79.39128113 70.23742554 79.39128113 73.20742554 79.39128113 76.26742554 C80.05128113 76.26742554 80.71128113 76.26742554 81.39128113 76.26742554 C82.95992195 74.71663483 82.95992195 74.71663483 84.57878113 72.70492554 C93.50428422 62.21092399 93.50428422 62.21092399 97.39128113 60.26742554 C97.39128113 56.96742554 97.39128113 53.66742554 97.39128113 50.26742554 C97.06128113 50.26742554 96.73128113 50.26742554 96.39128113 50.26742554 Z M161.47648621 54.81234741 C160.27062614 55.97486023 160.27062614 55.97486023 159.04040527 57.16085815 C158.17263962 58.01071289 157.30487396 58.86056763 156.41081238 59.73617554 C155.5234288 60.60504395 154.63604523 61.47391235 153.72177124 62.36911011 C151.84318798 64.21558569 149.96777279 66.06485676 148.09562683 67.91781616 C146.17478749 69.81646665 144.24158953 71.70097586 142.29582214 73.57406616 C139.49948893 76.27315422 136.73386705 79.00056123 133.97331238 81.73617554 C133.09947403 82.56983643 132.22563568 83.40349731 131.32531738 84.26242065 C127.0322872 88.30784213 127.0322872 88.30784213 125.08790588 93.63876343 C125.31684376 96.0947913 125.31684376 96.0947913 126.39128113 99.26742554 C131.75709399 94.78998647 136.73837416 90.05311989 141.66081238 85.09555054 C142.42302597 84.331922 143.18523956 83.56829346 143.97055054 82.78152466 C146.38400473 80.36251489 148.79394425 77.94003838 151.20378113 75.51742554 C152.84091853 73.87526674 154.4782861 72.23333738 156.1158905 70.59164429 C159.70243327 66.99530707 163.28677026 63.39678841 166.86914062 59.79629517 C168.04171478 58.61853726 169.21611224 57.44259443 170.39128113 56.26742554 C169.03594853 53.73069266 169.03594853 53.73069266 167.39128113 51.26742554 C164.43735297 51.26742554 163.57655217 52.7795166 161.47648621 54.81234741 Z M127.39128113 55.26742554 C128.39128113 57.26742554 128.39128113 57.26742554 128.39128113 57.26742554 Z M7.39128113 56.26742554 C5.33202431 59.35631076 5.15224373 59.97678481 5.26628113 63.45492554 C5.30753113 64.71305054 5.34878113 65.97117554 5.39128113 67.26742554 C6.71128113 66.27742554 8.03128113 65.28742554 9.39128113 64.26742554 C9.06128113 61.62742554 8.73128113 58.98742554 8.39128113 56.26742554 C8.06128113 56.26742554 7.73128113 56.26742554 7.39128113 56.26742554 Z M48.39128113 56.26742554 C46.28301058 59.42983135 46.05310648 60.77400022 45.76628113 64.45492554 C45.6915155 65.35598022 45.61674988 66.25703491 45.53971863 67.18539429 C45.46624207 68.21599976 45.46624207 68.21599976 45.39128113 69.26742554 C48.13035298 67.89635339 48.13035298 67.89635339 50.39128113 65.26742554 C50.54066583 62.16769305 50.04401438 59.29197172 49.39128113 56.26742554 C49.06128113 56.26742554 48.73128113 56.26742554 48.39128113 56.26742554 Z M170.39128113 60.26742554 C156.53128113 74.12742554 142.67128113 87.98742554 128.39128113 102.26742554 C129.38128113 104.24742554 130.37128113 106.22742554 131.39128113 108.26742554 C139.128983 101.77273052 146.26913402 94.7208928 153.44572449 87.61801147 C155.04079346 86.04467636 156.64210397 84.47764517 158.24943542 82.9168396 C160.58081514 80.65216569 162.8920759 78.36859454 165.19987488 76.07992554 C165.92162399 75.38600708 166.64337311 74.69208862 167.38699341 73.97714233 C171.33282779 70.08124412 171.33282779 70.08124412 172.96574402 64.90414429 C172.60895996 62.12485585 172.60895996 62.12485585 170.39128113 60.26742554 Z M26.39128113 64.57992554 C23.30309743 68.72967238 23.56549975 73.21508556 23.39128113 78.26742554 C26.03880117 75.68957707 28.33560178 73.35094456 30.39128113 70.26742554 C30.07397589 66.62802622 30.07397589 66.62802622 29.39128113 63.26742554 C28.13192121 63.1759828 28.13192121 63.1759828 26.39128113 64.57992554 Z M96.39128113 64.26742554 C95.18825241 65.73779397 93.98563729 67.20850413 92.78581238 68.68148804 C90.87976003 70.84915541 88.67460056 72.51102597 86.39128113 74.26742554 C84.11936697 76.28783302 84.11936697 76.28783302 82.39128113 78.26742554 C82.39128113 78.92742554 82.39128113 79.58742554 82.39128113 80.26742554 C81.40128113 80.59742554 80.41128113 80.92742554 79.39128113 81.26742554 C79.39128113 84.23742554 79.39128113 87.20742554 79.39128113 90.26742554 C80.05128113 90.26742554 80.71128113 90.26742554 81.39128113 90.26742554 C82.95992195 88.71663483 82.95992195 88.71663483 84.57878113 86.70492554 C93.50428422 76.21092399 93.50428422 76.21092399 97.39128113 74.26742554 C97.39128113 70.96742554 97.39128113 67.66742554 97.39128113 64.26742554 C97.06128113 64.26742554 96.73128113 64.26742554 96.39128113 64.26742554 Z M4.39128113 67.26742554 C5.39128113 69.26742554 5.39128113 69.26742554 5.39128113 69.26742554 Z M8.39128113 69.26742554 C4.69911325 72.79889362 4.69911325 72.79889362 3.05924988 77.44711304 C3.07653797 79.39029463 3.22437788 81.33134783 3.39128113 83.26742554 C8.65583377 79.65982647 8.65583377 79.65982647 10.95378113 74.01742554 C10.62761436 71.13638442 10.62761436 71.13638442 8.39128113 69.26742554 Z M47.95378113 70.70492554 C44.53684228 74.12186439 43.75962846 77.50522077 43.39128113 82.26742554 C43.72128113 83.25742554 44.05128113 84.24742554 44.39128113 85.26742554 C44.39128113 84.60742554 44.39128113 83.94742554 44.39128113 83.26742554 C45.05128113 83.26742554 45.71128113 83.26742554 46.39128113 83.26742554 C46.39128113 82.60742554 46.39128113 81.94742554 46.39128113 81.26742554 C47.03065613 80.95805054 47.67003113 80.64867554 48.32878113 80.32992554 C50.32738934 79.43290923 50.32738934 79.43290923 51.39128113 78.26742554 C51.46308077 76.74814516 51.4752012 75.22575072 51.45378113 73.70492554 C51.44475769 72.87863647 51.43573425 72.05234741 51.42643738 71.20101929 C51.41483582 70.56293335 51.40323425 69.92484741 51.39128113 69.26742554 C50.06320747 69.18276137 50.06320747 69.18276137 47.95378113 70.70492554 Z M170.87982178 73.65863037 C170.23077377 74.30989899 169.58172577 74.9611676 168.91300964 75.63217163 C168.17877274 76.36648407 167.44453583 77.10079651 166.68804932 77.85736084 C165.49120766 79.06194443 165.49120766 79.06194443 164.27018738 80.29086304 C163.45509201 81.10737335 162.63999664 81.92388367 161.80020142 82.76513672 C159.18238425 85.38857417 156.56805264 88.01545525 153.95378113 90.64242554 C152.19294156 92.40827806 150.43187681 94.17390607 148.670578 95.93930054 C144.78820264 99.8315396 140.90802352 103.72595315 137.02972412 107.62225342 C135.81827802 108.83867496 134.6052175 110.05348917 133.39128113 111.26742554 C134.71128113 113.24742554 136.03128113 115.22742554 137.39128113 117.26742554 C138.06634705 116.58583374 138.74141296 115.90424194 139.43693542 115.20199585 C142.14532765 112.49306911 144.91150409 109.84819749 147.6842041 107.20535278 C150.47682333 104.53361001 153.24534994 101.83744626 156.0131073 99.13998413 C157.47461764 97.72391694 158.94407617 96.3160076 160.42131042 94.91635132 C162.56445791 92.88263811 164.67693826 90.82096043 166.78581238 88.75180054 C167.44821426 88.13585022 168.11061615 87.5198999 168.79309082 86.88528442 C172.24863179 83.43362928 173.78870803 81.28920278 173.80412292 76.2996521 C173.69954897 74.95260314 173.57355386 73.60617617 173.39128113 72.26742554 C172.17153382 72.15455369 172.17153382 72.15455369 170.87982178 73.65863037 Z M29.39128113 75.26742554 C28.58690613 76.23680054 27.78253113 77.20617554 26.95378113 78.20492554 C24.39128113 81.26742554 24.39128113 81.26742554 22.39128113 82.26742554 C21.9222915 85.08341044 21.9222915 85.08341044 21.76628113 88.32992554 C21.6915155 89.4346521 21.61674988 90.53937866 21.53971863 91.67758179 C21.49073425 92.53223022 21.44174988 93.38687866 21.39128113 94.26742554 C22.11315613 93.54555054 22.83503113 92.82367554 23.57878113 92.07992554 C26.39128113 89.26742554 26.39128113 89.26742554 29.26628113 87.01742554 C31.70268032 83.86443835 31.62442441 83.24071506 31.20378113 79.45492554 C30.95928921 78.05423817 30.69684339 76.65606987 30.39128113 75.26742554 C30.06128113 75.26742554 29.73128113 75.26742554 29.39128113 75.26742554 Z M96.39128113 78.26742554 C96.06128113 79.25742554 95.73128113 80.24742554 95.39128113 81.26742554 C94.73128113 81.26742554 94.07128113 81.26742554 93.39128113 81.26742554 C90.34733044 84.00698116 87.94731884 86.44806026 86.39128113 90.26742554 C85.73128113 90.26742554 85.07128113 90.26742554 84.39128113 90.26742554 C84.39128113 90.92742554 84.39128113 91.58742554 84.39128113 92.26742554 C83.73128113 92.26742554 83.07128113 92.26742554 82.39128113 92.26742554 C82.39128113 92.92742554 82.39128113 93.58742554 82.39128113 94.26742554 C81.40128113 94.59742554 80.41128113 94.92742554 79.39128113 95.26742554 C79.39128113 98.23742554 79.39128113 101.20742554 79.39128113 104.26742554 C80.05128113 104.26742554 80.71128113 104.26742554 81.39128113 104.26742554 C82.95992195 102.71663483 82.95992195 102.71663483 84.57878113 100.70492554 C93.50428422 90.21092399 93.50428422 90.21092399 97.39128113 88.26742554 C97.39128113 84.96742554 97.39128113 81.66742554 97.39128113 78.26742554 C97.06128113 78.26742554 96.73128113 78.26742554 96.39128113 78.26742554 Z M10.39128113 80.26742554 C9.40427581 81.34603914 8.45157527 82.4561766 7.51628113 83.57992554 C5.97433148 85.42794057 4.53993101 87.14050406 2.70768738 88.70492554 C0.9096511 90.83909322 1.08438354 92.20878107 1.20378113 94.95492554 C1.23085144 95.76316772 1.25792175 96.57140991 1.28581238 97.40414429 C1.32061707 98.0190271 1.35542175 98.63390991 1.39128113 99.26742554 C3.12835587 97.80359851 4.85439249 96.33073652 6.56315613 94.83383179 C8.39128113 93.26742554 8.39128113 93.26742554 10.89128113 91.45492554 C13.07031885 88.27716219 12.34616113 85.78768158 11.75065613 82.09555054 C11.63206238 81.49226929 11.51346863 80.88898804 11.39128113 80.26742554 C11.06128113 80.26742554 10.73128113 80.26742554 10.39128113 80.26742554 Z M51.39128113 81.26742554 C50.40427581 82.34603914 49.45157527 83.4561766 48.51628113 84.57992554 C46.973692 86.42870698 45.52373423 88.15187481 43.70768738 89.73617554 C41.98745269 91.7371607 42.07607408 92.85821559 42.20378113 95.45492554 C42.26565613 96.71305054 42.32753113 97.97117554 42.39128113 99.26742554 C46.21064641 97.71138783 48.65172551 95.31137623 51.39128113 92.26742554 C51.39128113 91.60742554 51.39128113 90.94742554 51.39128113 90.26742554 C52.05128113 90.26742554 52.71128113 90.26742554 53.39128113 90.26742554 C53.06128113 87.29742554 52.73128113 84.32742554 52.39128113 81.26742554 C52.06128113 81.26742554 51.73128113 81.26742554 51.39128113 81.26742554 Z M2.39128113 84.26742554 C3.39128113 86.26742554 3.39128113 86.26742554 3.39128113 86.26742554 Z M31.39128113 87.26742554 C30.2589092 88.49193272 29.16056677 89.74800683 28.07878113 91.01742554 C26.14246276 93.27910887 24.27339437 95.37575391 22.07878113 97.39242554 C19.90996915 99.80221662 19.23580924 102.17082245 18.39128113 105.26742554 C17.07128113 104.93742554 15.75128113 104.60742554 14.39128113 104.26742554 C10.62774077 108.52783779 6.89246151 112.78591465 3.39128113 117.26742554 C4.71128113 118.91742554 6.03128113 120.56742554 7.39128113 122.26742554 C7.39128113 121.60742554 7.39128113 120.94742554 7.39128113 120.26742554 C8.03065613 119.99930054 8.67003113 119.73117554 9.32878113 119.45492554 C11.72259799 118.38074801 11.72259799 118.38074801 12.39128113 115.26742554 C13.05128113 115.26742554 13.71128113 115.26742554 14.39128113 115.26742554 C14.39128113 114.60742554 14.39128113 113.94742554 14.39128113 113.26742554 C15.05128113 113.26742554 15.71128113 113.26742554 16.39128113 113.26742554 C16.39128113 112.60742554 16.39128113 111.94742554 16.39128113 111.26742554 C17.05128113 111.26742554 17.71128113 111.26742554 18.39128113 111.26742554 C18.39128113 110.60742554 18.39128113 109.94742554 18.39128113 109.26742554 C19.38128113 108.93742554 20.37128113 108.60742554 21.39128113 108.26742554 C21.39128113 107.60742554 21.39128113 106.94742554 21.39128113 106.26742554 C22.05128113 106.26742554 22.71128113 106.26742554 23.39128113 106.26742554 C23.39128113 105.60742554 23.39128113 104.94742554 23.39128113 104.26742554 C24.01003113 104.01992554 24.62878113 103.77242554 25.26628113 103.51742554 C27.52874607 102.44598824 27.52874607 102.44598824 28.39128113 100.26742554 C29.39128113 98.26742554 29.39128113 98.26742554 33.39128113 96.26742554 C33.06128113 93.29742554 32.73128113 90.32742554 32.39128113 87.26742554 C32.06128113 87.26742554 31.73128113 87.26742554 31.39128113 87.26742554 Z M171.39128113 87.26742554 C160.83128113 97.82742554 150.27128113 108.38742554 139.39128113 119.26742554 C140.05128113 121.57742554 140.71128113 123.88742554 141.39128113 126.26742554 C147.13061918 121.50254729 152.39663407 116.38045818 157.64128113 111.07992554 C158.84397644 109.87046265 158.84397644 109.87046265 160.07096863 108.63656616 C161.55162479 107.14724395 163.0312451 105.6568906 164.50944519 104.16513062 C165.68771239 102.97692733 166.87603591 101.79852067 168.07878113 100.63510132 C169.66636576 98.98077671 170.33625396 97.46981918 171.14128113 95.32992554 C171.40424988 94.6609021 171.66721863 93.99187866 171.93815613 93.30258179 C172.62490567 90.93378868 172.62490567 90.93378868 171.39128113 87.26742554 Z M88.26628113 100.01742554 C87.49928894 100.74703491 86.73229675 101.47664429 85.94206238 102.22836304 C85.22147644 102.93734741 84.5008905 103.64633179 83.75846863 104.37680054 C83.08928406 105.02616577 82.42009949 105.67553101 81.7306366 106.34457397 C80.1704764 108.16733825 80.1704764 108.16733825 80.49333191 110.3855896 C81.36091992 112.61700446 81.36091992 112.61700446 84.39128113 114.26742554 C85.1621405 113.4849646 85.93299988 112.70250366 86.72721863 111.89633179 C87.74010686 110.87406496 88.75313497 109.85193673 89.76628113 108.82992554 C90.27417175 108.31365601 90.78206238 107.79738647 91.30534363 107.26547241 C95.16471863 103.38070679 95.16471863 103.38070679 97.39128113 102.26742554 C97.39128113 98.96742554 97.39128113 95.66742554 97.39128113 92.26742554 C94.3869015 92.26742554 90.31395059 98.00799778 88.26628113 100.01742554 Z M11.39128113 93.26742554 C9.60043726 95.2419457 7.89754794 97.28338961 6.18034363 99.32211304 C4.39128113 101.26742554 4.39128113 101.26742554 1.39128113 103.26742554 C1.02667659 105.93396459 1.02667659 105.93396459 1.20378113 108.89242554 C1.23085144 109.89531616 1.25792175 110.89820679 1.28581238 111.93148804 C1.32061707 112.70234741 1.35542175 113.47320679 1.39128113 114.26742554 C2.53713296 113.12157371 3.67978829 111.9724052 4.80924988 110.81039429 C6.39128113 109.26742554 6.39128113 109.26742554 8.31706238 107.69320679 C12.20985557 104.46723368 12.20985557 104.46723368 13.61393738 99.81820679 C13.35597698 97.56723725 12.98113358 95.45334933 12.39128113 93.26742554 C12.06128113 93.26742554 11.73128113 93.26742554 11.39128113 93.26742554 Z M52.39128113 94.26742554 C51.66940613 95.15430054 50.94753113 96.04117554 50.20378113 96.95492554 C47.78625974 99.92502324 45.10515702 102.56679729 42.39128113 105.26742554 C41.37560885 106.28251489 40.36024088 107.2979088 39.34513855 108.31356812 C31.36051941 116.29818726 23.37590027 124.2828064 15.39128113 132.26742554 C16.05128113 134.57742554 16.71128113 136.88742554 17.39128113 139.26742554 C20.70101863 135.96118506 24.00367772 132.64804017 27.30232239 129.33073425 C29.86432524 126.75531654 32.42901598 124.18258239 34.99382019 121.60995483 C36.34659698 120.25211575 37.69847972 118.89338539 39.04948425 117.53378296 C41.00742359 115.56373706 42.96855493 113.59691854 44.93034363 111.63070679 C45.5335141 111.02237503 46.13668457 110.41404327 46.75813293 109.78727722 C47.60448807 108.94080879 47.60448807 108.94080879 48.46794128 108.07723999 C48.96138031 107.58158035 49.45481934 107.08592072 49.96321106 106.57524109 C51.39128113 105.26742554 51.39128113 105.26742554 54.39128113 103.26742554 C54.80794779 99.76742554 54.80794779 99.76742554 54.39128113 96.26742554 C53.73128113 95.60742554 53.07128113 94.94742554 52.39128113 94.26742554 Z M32.39128113 99.26742554 C31.99255798 99.99212036 31.59383484 100.71681519 31.18302917 101.46347046 C29.2856003 104.43280833 27.22867281 106.65726178 24.72331238 109.13070679 C23.38429871 110.46005249 23.38429871 110.46005249 22.01823425 111.81625366 C21.08946472 112.72826538 20.16069519 113.6402771 19.20378113 114.57992554 C18.25344963 115.52021433 17.30357513 116.46096525 16.35417175 117.40219116 C14.0376599 119.69518513 11.71660312 121.98337206 9.39128113 124.26742554 C10.50982699 127.99356707 10.50982699 127.99356707 13.39128113 130.26742554 C14.93294754 128.89257021 14.93294754 128.89257021 16.39128113 127.26742554 C16.39128113 126.60742554 16.39128113 125.94742554 16.39128113 125.26742554 C17.05128113 125.26742554 17.71128113 125.26742554 18.39128113 125.26742554 C19.95776971 123.68005155 19.95776971 123.68005155 21.57878113 121.64242554 C24.43531234 118.27303068 27.39364515 115.37998384 30.81315613 112.59164429 C32.44813797 111.21971646 33.97131547 109.8627484 35.39128113 108.26742554 C35.39128113 107.60742554 35.39128113 106.94742554 35.39128113 106.26742554 C36.38128113 105.93742554 37.37128113 105.60742554 38.39128113 105.26742554 C37.77253113 104.64867554 37.15378113 104.02992554 36.51628113 103.39242554 C35.14128113 102.01742554 33.76628113 100.64242554 32.39128113 99.26742554 Z M41.39128113 99.26742554 C42.39128113 101.26742554 42.39128113 101.26742554 42.39128113 101.26742554 Z M94.39518738 108.16586304 C93.58952332 108.98312866 92.78385925 109.80039429 91.95378113 110.64242554 C91.15069519 111.45453491 90.34760925 112.26664429 89.52018738 113.10336304 C88.46637878 114.17457397 88.46637878 114.17457397 87.39128113 115.26742554 C86.73128113 115.92742554 86.07128113 116.58742554 85.39128113 117.26742554 C86.38128113 119.57742554 87.37128113 121.88742554 88.39128113 124.26742554 C93.01464559 120.78135928 96.27578705 118.21672727 97.39128113 112.26742554 C97.55926582 109.01697845 97.55926582 109.01697845 97.39128113 106.26742554 C96.05293026 106.15256565 96.05293026 106.15256565 94.39518738 108.16586304 Z M53.39128113 107.26742554 C52.43221863 108.47398804 52.43221863 108.47398804 51.45378113 109.70492554 C49.39128113 112.26742554 49.39128113 112.26742554 47.39128113 113.26742554 C47.39128113 113.92742554 47.39128113 114.58742554 47.39128113 115.26742554 C46.73128113 115.26742554 46.07128113 115.26742554 45.39128113 115.26742554 C45.39128113 115.92742554 45.39128113 116.58742554 45.39128113 117.26742554 C44.73128113 117.26742554 44.07128113 117.26742554 43.39128113 117.26742554 C42.15720633 118.70162058 40.92912741 120.14188297 39.74674988 121.61898804 C37.78771793 124.00144188 35.59831402 126.11556847 33.39128113 128.26742554 C32.18471863 129.50492554 32.18471863 129.50492554 30.95378113 130.76742554 C27.58182494 134.05713889 23.97838803 137.05400408 20.23606873 139.91519165 C17.62941625 143.23885683 17.86078654 146.29432519 17.93717957 150.34066772 C17.93659546 151.15079819 17.93601135 151.96092865 17.93540955 152.79560852 C17.93819261 155.46894425 17.96929423 158.14116001 18.00065613 160.81430054 C18.00811775 162.66945791 18.01381105 164.52462318 18.01780701 166.37979126 C18.03306957 171.25932631 18.07235677 176.13838407 18.11662292 181.01773071 C18.15756218 185.99803206 18.17581515 190.97841063 18.19596863 195.95883179 C18.2388504 205.72857258 18.30710931 215.49795935 18.39128113 225.26742554 C18.72128113 225.26742554 19.05128113 225.26742554 19.39128113 225.26742554 C19.553703 224.43855835 19.71612488 223.60969116 19.88346863 222.75570679 C22.35227381 217.04419636 27.18072473 213.50103264 31.80143738 209.45297241 C35.90835521 205.74713498 35.90835521 205.74713498 37.88249207 200.75033569 C37.88336108 198.53043192 37.75169993 196.45568257 37.39128113 194.26742554 C31.35796751 199.25146722 25.87286402 204.68657856 20.39128113 210.26742554 C20.89371799 206.1213183 21.87378607 204.34428005 24.98893738 201.59555054 C25.70758972 200.93039429 26.42624207 200.26523804 27.16667175 199.57992554 C28.6858314 198.20995749 30.21448243 196.8504385 31.75260925 195.50180054 C35.88825825 191.77176508 35.88825825 191.77176508 37.8868866 186.74594116 C37.88732107 184.5266461 37.75484266 182.4545201 37.39128113 180.26742554 C31.35796751 185.25146722 25.87286402 190.68657856 20.39128113 196.26742554 C20.89371799 192.1213183 21.87378607 190.34428005 24.98893738 187.59555054 C25.70758972 186.93039429 26.42624207 186.26523804 27.16667175 185.57992554 C28.6858314 184.20995749 30.21448243 182.8504385 31.75260925 181.50180054 C35.88825825 177.77176508 35.88825825 177.77176508 37.8868866 172.74594116 C37.88732107 170.5266461 37.75484266 168.4545201 37.39128113 166.26742554 C31.35796751 171.25146722 25.87286402 176.68657856 20.39128113 182.26742554 C20.57603577 176.5726354 24.47139183 173.70278063 28.32878113 170.01742554 C28.97524597 169.38062866 29.62171082 168.74383179 30.2877655 168.08773804 C35.05247251 163.43682984 35.05247251 163.43682984 37.39128113 162.26742554 C37.39128113 158.96742554 37.39128113 155.66742554 37.39128113 152.26742554 C31.35796751 157.25146722 25.87286402 162.68657856 20.39128113 168.26742554 C20.57603577 162.5726354 24.47139183 159.70278063 28.32878113 156.01742554 C28.97524597 155.38062866 29.62171082 154.74383179 30.2877655 154.08773804 C35.05247251 149.43682984 35.05247251 149.43682984 37.39128113 148.26742554 C38.08355145 145.45761881 38.08355145 145.45761881 38.51628113 142.20492554 C38.68385925 141.10019897 38.85143738 139.99547241 39.02409363 138.85726929 C39.1452655 138.00262085 39.26643738 137.14797241 39.39128113 136.26742554 C35.15747002 139.51412721 35.15747002 139.51412721 31.39128113 143.26742554 C31.39128113 143.92742554 31.39128113 144.58742554 31.39128113 145.26742554 C30.73128113 145.26742554 30.07128113 145.26742554 29.39128113 145.26742554 C29.39128113 145.92742554 29.39128113 146.58742554 29.39128113 147.26742554 C28.73128113 147.26742554 28.07128113 147.26742554 27.39128113 147.26742554 C27.39128113 147.92742554 27.39128113 148.58742554 27.39128113 149.26742554 C25.90628113 149.76242554 25.90628113 149.76242554 24.39128113 150.26742554 C24.39128113 150.92742554 24.39128113 151.58742554 24.39128113 152.26742554 C23.73128113 152.26742554 23.07128113 152.26742554 22.39128113 152.26742554 C22.39128113 152.92742554 22.39128113 153.58742554 22.39128113 154.26742554 C21.73128113 154.26742554 21.07128113 154.26742554 20.39128113 154.26742554 C20.80427815 149.42609129 23.10656547 146.99348035 26.44987488 143.74789429 C26.95422562 143.24445999 27.45857635 142.7410257 27.97821045 142.22233582 C29.04192532 141.16464428 30.11047836 140.11179892 31.18351746 139.06356812 C32.83025771 137.45348182 34.46028622 135.8278175 36.08854675 134.19906616 C37.12471472 133.17272424 38.16179318 132.14730054 39.19987488 131.12289429 C39.68951218 130.63548264 40.17914948 130.14807098 40.68362427 129.64588928 C44.15910451 126.26742554 44.15910451 126.26742554 46.39128113 126.26742554 C48.45431726 123.81332789 48.45431726 123.81332789 50.51628113 120.70492554 C51.24073425 119.67238647 51.96518738 118.63984741 52.71159363 117.57601929 C54.61269665 113.83128845 54.7151387 111.40966839 54.39128113 107.26742554 C54.06128113 107.26742554 53.73128113 107.26742554 53.39128113 107.26742554 Z M150.32878113 121.70492554 C149.04777527 122.87958374 149.04777527 122.87958374 147.7408905 124.07797241 C143.18877982 128.30977389 143.18877982 128.30977389 140.83317566 133.87338257 C140.77371349 136.61100892 140.77371349 136.61100892 141.39128113 140.26742554 C143.7481586 138.29331615 146.07550626 136.28965148 148.39128113 134.26742554 C148.93913269 133.81109741 149.48698425 133.35476929 150.05143738 132.88461304 C154.66559398 128.75429383 156.38434146 124.02369339 158.39128113 118.26742554 C159.05073529 116.59789194 159.71542513 114.93038702 160.39128113 113.26742554 C157.1545234 113.26742554 152.55239634 119.56560203 150.32878113 121.70492554 Z M89.62565613 125.55648804 C87.94395351 127.88745559 88.1788642 129.265158 88.51628113 132.07992554 C88.77700142 133.48186886 89.05895295 134.88071067 89.39128113 136.26742554 C92.58132029 134.97779469 92.58132029 134.97779469 95.39128113 132.26742554 C95.93252173 128.88201864 95.74170298 125.66781538 95.39128113 122.26742554 C93.06501581 122.26742554 91.32976004 124.15263101 89.62565613 125.55648804 Z M145.63444519 140.34262085 C143.16158402 142.89064497 141.57802224 144.60785224 140.59831238 148.06820679 C140.57239393 150.75436722 140.57239393 150.75436722 141.39128113 154.26742554 C141.82698425 153.89230835 142.26268738 153.51719116 142.71159363 153.13070679 C143.3071405 152.61894897 143.90268738 152.10719116 144.51628113 151.57992554 C145.14921082 151.0243396 145.7821405 150.46875366 146.43424988 149.89633179 C148.39128113 148.26742554 148.39128113 148.26742554 150.19206238 147.10726929 C152.12680965 145.90997611 152.12680965 145.90997611 154.39128113 143.26742554 C154.887762 139.87567725 154.74788423 136.66836253 154.39128113 133.26742554 C151.58150722 133.26742554 147.67112561 138.37402542 145.63444519 140.34262085 Z M91.82878113 138.14242554 C88.44494291 142.48067967 88.92736861 145.95820445 89.39128113 151.26742554 C92.10664495 149.54069792 94.41644986 147.82643464 96.39128113 145.26742554 C96.71085372 142.09747161 96.20197073 139.33305847 95.39128113 136.26742554 C93.99658261 136.1690072 93.99658261 136.1690072 91.82878113 138.14242554 Z M153.39128113 146.26742554 C151.61531958 148.19138388 149.9400116 150.19229909 148.24674988 152.18930054 C146.39128113 154.26742554 146.39128113 154.26742554 143.45378113 156.70492554 C140.47247792 160.40896892 140.9420666 163.6854373 141.39128113 168.26742554 C143.08935989 166.85068527 144.77048468 165.41980328 146.43424988 163.96273804 C147.65809642 162.90255959 148.90782491 161.87077369 150.19206238 160.88461304 C152.90942918 158.61473623 154.25006277 157.25744056 154.76237488 153.66586304 C154.76588988 151.17021443 154.65600137 148.74795225 154.39128113 146.26742554 C154.06128113 146.26742554 153.73128113 146.26742554 153.39128113 146.26742554 Z M95.39128113 147.26742554 C94.71065613 148.41211304 94.71065613 148.41211304 94.01628113 149.57992554 C92.39128113 152.26742554 92.39128113 152.26742554 90.80143738 153.61117554 C88.83716313 155.91824557 89.08769145 157.47529051 89.20378113 160.45492554 C89.23085144 161.35598022 89.25792175 162.25703491 89.28581238 163.18539429 C89.32061707 163.8724646 89.35542175 164.55953491 89.39128113 165.26742554 C92.239957 163.61054263 94.43745867 161.94107733 96.39128113 159.26742554 C97.00671353 155.20246868 96.80717234 151.3471203 96.39128113 147.26742554 C96.06128113 147.26742554 95.73128113 147.26742554 95.39128113 147.26742554 Z M153.39128113 160.26742554 C151.61531958 162.19138388 149.9400116 164.19229909 148.24674988 166.18930054 C146.39128113 168.26742554 146.39128113 168.26742554 143.45378113 170.70492554 C140.47247792 174.40896892 140.9420666 177.6854373 141.39128113 182.26742554 C143.08935989 180.85068527 144.77048468 179.41980328 146.43424988 177.96273804 C147.65809642 176.90255959 148.90782491 175.87077369 150.19206238 174.88461304 C152.90942918 172.61473623 154.25006277 171.25744056 154.76237488 167.66586304 C154.76588988 165.17021443 154.65600137 162.74795225 154.39128113 160.26742554 C154.06128113 160.26742554 153.73128113 160.26742554 153.39128113 160.26742554 Z M95.39128113 163.26742554 C91.95608595 165.33806834 91.95608595 165.33806834 89.39128113 168.26742554 C88.85872546 171.98487294 89.03852796 175.53738745 89.39128113 179.26742554 C90.53596863 178.09180054 90.53596863 178.09180054 91.70378113 176.89242554 C94.39128113 174.26742554 94.39128113 174.26742554 97.39128113 172.26742554 C97.75426049 170.28995432 97.75426049 170.28995432 97.57878113 168.14242554 C97.51690613 166.86367554 97.45503113 165.58492554 97.39128113 164.26742554 C96.73128113 163.93742554 96.07128113 163.60742554 95.39128113 163.26742554 Z M153.39128113 174.26742554 C151.61531958 176.19138388 149.9400116 178.19229909 148.24674988 180.18930054 C146.39128113 182.26742554 146.39128113 182.26742554 143.45378113 184.70492554 C140.47247792 188.40896892 140.9420666 191.6854373 141.39128113 196.26742554 C143.08935989 194.85068527 144.77048468 193.41980328 146.43424988 191.96273804 C147.65809642 190.90255959 148.90782491 189.87077369 150.19206238 188.88461304 C152.90942918 186.61473623 154.25006277 185.25744056 154.76237488 181.66586304 C154.76588988 179.17021443 154.65600137 176.74795225 154.39128113 174.26742554 C154.06128113 174.26742554 153.73128113 174.26742554 153.39128113 174.26742554 Z M96.39128113 175.26742554 C95.58690613 176.23680054 94.78253113 177.20617554 93.95378113 178.20492554 C91.39128113 181.26742554 91.39128113 181.26742554 89.39128113 182.26742554 C89.39128113 185.56742554 89.39128113 188.86742554 89.39128113 192.26742554 C91.09284363 190.81336304 91.09284363 190.81336304 92.82878113 189.32992554 C93.46686707 188.7846521 94.104953 188.23937866 94.76237488 187.67758179 C95.66119261 186.89946859 96.55064641 186.10806026 97.39128113 185.26742554 C97.46333624 183.58133588 97.4751418 181.89241894 97.45378113 180.20492554 C97.44024597 178.82627319 97.44024597 178.82627319 97.42643738 177.41976929 C97.41483582 176.70949585 97.40323425 175.99922241 97.39128113 175.26742554 C97.06128113 175.26742554 96.73128113 175.26742554 96.39128113 175.26742554 Z M97.39128113 186.26742554 C97.20565613 186.96867554 97.02003113 187.66992554 96.82878113 188.39242554 C95.35807938 191.33382904 94.4288045 192.15436206 91.89128113 194.07992554 C87.76236934 197.40886067 87.06411374 200.05297277 86.39128113 205.26742554 C86.81221333 207.44374071 86.81221333 207.44374071 87.39128113 209.26742554 C88.43928894 208.20201538 88.43928894 208.20201538 89.50846863 207.11508179 C90.41854675 206.19598022 91.32862488 205.27687866 92.26628113 204.32992554 C93.171203 203.4134021 94.07612488 202.49687866 95.00846863 201.55258179 C97.39128113 199.26742554 97.39128113 199.26742554 99.39128113 198.26742554 C99.06128113 194.30742554 98.73128113 190.34742554 98.39128113 186.26742554 C98.06128113 186.26742554 97.73128113 186.26742554 97.39128113 186.26742554 Z M145.63444519 196.34262085 C143.16158402 198.89064497 141.57802224 200.60785224 140.59831238 204.06820679 C140.57239393 206.75436722 140.57239393 206.75436722 141.39128113 210.26742554 C143.08860164 208.85131789 144.76956054 207.42112845 146.43424988 205.96664429 C147.66314169 204.89964242 148.91341 203.85629152 150.19206238 202.84945679 C152.75909983 200.66226736 154.22975391 199.30290001 154.76237488 195.88851929 C154.76588078 193.64824685 154.65805752 191.49056215 154.39128113 189.26742554 C151.58150722 189.26742554 147.67112561 194.37402542 145.63444519 196.34262085 Z M98.39128113 202.26742554 C97.62042175 203.04988647 96.84956238 203.83234741 96.05534363 204.63851929 C95.0424554 205.66078611 94.02942729 206.68291435 93.01628113 207.70492554 C92.25444519 208.47932983 92.25444519 208.47932983 91.47721863 209.26937866 C87.61784363 213.15414429 87.61784363 213.15414429 85.39128113 214.26742554 C84.37295702 218.76502368 84.10092253 221.27691613 86.39128113 225.26742554 C86.80378113 224.77113647 87.21628113 224.27484741 87.64128113 223.76351929 C90.84492654 219.99494533 93.97505051 216.73862531 97.89128113 213.70492554 C99.92071453 212.09688791 99.92071453 212.09688791 101.39128113 210.26742554 C101.75299858 206.44713043 101.75299858 206.44713043 100.39128113 203.26742554 C99.73128113 202.93742554 99.07128113 202.60742554 98.39128113 202.26742554 Z M145.63444519 210.34262085 C143.16158402 212.89064497 141.57802224 214.60785224 140.59831238 218.06820679 C140.57239393 220.75436722 140.57239393 220.75436722 141.39128113 224.26742554 C143.08860164 222.85131789 144.76956054 221.42112845 146.43424988 219.96664429 C147.66314169 218.89964242 148.91341 217.85629152 150.19206238 216.84945679 C152.75909983 214.66226736 154.22975391 213.30290001 154.76237488 209.88851929 C154.76588078 207.64824685 154.65805752 205.49056215 154.39128113 203.26742554 C151.58150722 203.26742554 147.67112561 208.37402542 145.63444519 210.34262085 Z M27.76628113 216.45492554 C26.95159363 217.22385132 26.13690613 217.9927771 25.29753113 218.78500366 C24.531828 219.53588257 23.76612488 220.28676147 22.97721863 221.06039429 C22.26613953 221.74641724 21.55506042 222.43244019 20.82243347 223.13925171 C19.09056545 225.22612511 19.09056545 225.22612511 19.66716003 228.03036499 C19.90612 228.76859497 20.14507996 229.50682495 20.39128113 230.26742554 C21.38128113 230.59742554 22.37128113 230.92742554 23.39128113 231.26742554 C25.76203143 229.16014198 28.07926276 227.00134819 30.39128113 224.82992554 C31.0590155 224.23760132 31.72674988 223.6452771 32.41471863 223.03500366 C36.15104708 219.50903412 36.15104708 219.50903412 37.82878113 214.78646851 C37.82878113 212.5676378 37.70840624 210.46181805 37.39128113 208.26742554 C34.27246726 208.26742554 29.89812088 214.37246546 27.76628113 216.45492554 Z M99.90080261 214.64437866 C99.27762146 215.27279663 98.65444031 215.9012146 98.01237488 216.54867554 C97.33883972 217.22543335 96.66530457 217.90219116 95.97135925 218.59945679 C95.26430847 219.31488647 94.55725769 220.03031616 93.82878113 220.76742554 C93.11786316 221.48285522 92.40694519 222.19828491 91.67448425 222.93539429 C89.91117516 224.71053767 88.15023273 226.48796598 86.39128113 228.26742554 C86.72128113 229.25742554 87.05128113 230.24742554 87.39128113 231.26742554 C90.02904578 232.47570509 90.02904578 232.47570509 93.39128113 232.26742554 C96.11171835 229.89619557 98.20461597 227.12474316 100.39128113 224.26742554 C101.05128113 223.60742554 101.71128113 222.94742554 102.39128113 222.26742554 C102.63381926 220.05669576 102.63381926 220.05669576 102.51628113 217.64242554 C102.49823425 216.82515991 102.48018738 216.00789429 102.46159363 215.16586304 C102.4383905 214.53937866 102.41518738 213.91289429 102.39128113 213.26742554 C101.17550743 213.15432889 101.17550743 213.15432889 99.90080261 214.64437866 Z M147.32878113 223.14242554 C146.47703308 223.97580444 146.47703308 223.97580444 145.608078 224.82601929 C144.16195696 226.26693222 142.77205531 227.76377703 141.39128113 229.26742554 C141.39128113 229.92742554 141.39128113 230.58742554 141.39128113 231.26742554 C145.86152403 232.54945892 145.86152403 232.54945892 150.19206238 231.31430054 C152.80974539 229.04022747 154.22518129 227.34445187 154.76237488 223.86117554 C154.76590438 221.63053096 154.65692106 219.4810916 154.39128113 217.26742554 C151.94305597 217.26742554 149.08739564 221.38582087 147.32878113 223.14242554 Z M34.61393738 223.94711304 C33.90108582 224.67156616 33.18823425 225.39601929 32.45378113 226.14242554 C31.74350769 226.86172241 31.03323425 227.58101929 30.30143738 228.32211304 C29.67108582 228.96406616 29.04073425 229.60601929 28.39128113 230.26742554 C27.73128113 230.92742554 27.07128113 231.58742554 26.39128113 232.26742554 C31.39721655 232.68695808 31.39721655 232.68695808 35.82878113 230.64242554 C37.78772718 227.66482754 37.70914019 225.76387517 37.39128113 222.26742554 C36.1048355 222.1529492 36.1048355 222.1529492 34.61393738 223.94711304 Z M100.39128113 227.26742554 C101.39128113 229.26742554 101.39128113 229.26742554 101.39128113 229.26742554 Z " fill="#DC583E" transform="translate(57.60871887207031,27.732574462890625)"/>
</svg>
